<svg width="560" height="140" viewBox="0 0 560 140" fill="none" xmlns="http://www.w3.org/2000/svg">
  <defs>
    <linearGradient id="taskorGrad" x1="20" y1="12" x2="128" y2="108" gradientUnits="userSpaceOnUse">
      <stop stop-color="#7C3AED"/>
      <stop offset="1" stop-color="#2563EB"/>
    </linearGradient>
  </defs>

  <!-- Icon -->
  <g transform="translate(8,10)">
    <!-- top bar -->
    <rect x="12" y="8" rx="16" ry="16" width="112" height="28" fill="url(#taskorGrad)"/>
    <!-- flow lines -->
    <path d="M68 36V56C68 62.627 62.627 68 56 68H42" stroke="#0B1533" stroke-width="8" stroke-linecap="round" stroke-linejoin="round"/>
    <path d="M68 36V74C68 80.627 73.373 86 80 86H94" stroke="#0B1533" stroke-width="8" stroke-linecap="round" stroke-linejoin="round"/>
    <path d="M68 74V92C68 98.627 62.627 104 56 104H46" stroke="#0B1533" stroke-width="8" stroke-linecap="round" stroke-linejoin="round"/>

    <!-- node 1 -->
    <rect x="10" y="56" rx="12" width="32" height="32" fill="#7C3AED"/>
    <path d="M19 72l5 5 9-10" stroke="white" stroke-width="4.5" stroke-linecap="round" stroke-linejoin="round"/>

    <!-- node 2 -->
    <rect x="94" y="72" rx="12" width="32" height="32" fill="#2563EB"/>
    <path d="M103 88l5 5 9-10" stroke="white" stroke-width="4.5" stroke-linecap="round" stroke-linejoin="round"/>

    <!-- node 3 -->
    <rect x="14" y="96" rx="12" width="40" height="28" fill="#22C55E"/>
    <circle cx="26" cy="110" r="3.5" fill="white"/>
    <circle cx="34" cy="110" r="3.5" fill="white"/>
    <circle cx="42" cy="110" r="3.5" fill="white"/>
  </g>

  <!-- Wordmark -->
  <g transform="translate(160,28)">
    <text x="0" y="56" font-family="Inter, Segoe UI, Arial, sans-serif" font-size="72" font-weight="800" fill="#0B1533" letter-spacing="-2">Taskor</text>
    <!-- check inside o -->
    <circle cx="278" cy="38" r="14" fill="#7C3AED" opacity="0.12"/>
    <path d="M270 38l6 6 11-12" stroke="#7C3AED" stroke-width="4.5" stroke-linecap="round" stroke-linejoin="round"/>
  </g>
</svg>
