<svg width="128" height="128" viewBox="0 0 128 128" fill="none" xmlns="http://www.w3.org/2000/svg">
  <defs>
    <linearGradient id="taskorGradIcon" x1="18" y1="12" x2="118" y2="110" gradientUnits="userSpaceOnUse">
      <stop stop-color="#7C3AED"/>
      <stop offset="1" stop-color="#2563EB"/>
    </linearGradient>
  </defs>
  <rect width="128" height="128" rx="28" fill="#0B1533"/>
  <g transform="translate(2,4)">
    <rect x="16" y="12" rx="16" ry="16" width="96" height="24" fill="url(#taskorGradIcon)"/>
    <path d="M64 36V54C64 60.627 58.627 66 52 66H38" stroke="white" stroke-width="7" stroke-linecap="round" stroke-linejoin="round"/>
    <path d="M64 36V72C64 78.627 69.373 84 76 84H90" stroke="white" stroke-width="7" stroke-linecap="round" stroke-linejoin="round"/>
    <path d="M64 72V90C64 96.627 58.627 102 52 102H42" stroke="white" stroke-width="7" stroke-linecap="round" stroke-linejoin="round"/>

    <rect x="10" y="54" rx="12" width="30" height="30" fill="#7C3AED"/>
    <path d="M18 69l5 5 8-9" stroke="white" stroke-width="4" stroke-linecap="round" stroke-linejoin="round"/>

    <rect x="90" y="70" rx="12" width="28" height="28" fill="#2563EB"/>
    <path d="M98 84l4 4 8-9" stroke="white" stroke-width="4" stroke-linecap="round" stroke-linejoin="round"/>

    <rect x="14" y="94" rx="12" width="38" height="24" fill="#22C55E"/>
    <circle cx="25" cy="106" r="3" fill="white"/>
    <circle cx="33" cy="106" r="3" fill="white"/>
    <circle cx="41" cy="106" r="3" fill="white"/>
  </g>
</svg>
